<mxfile host="app.diagrams.net" modified="2021-01-09T06:34:18.223Z" agent="5.0 (Windows NT 10.0; Win64; x64) AppleWebKit/537.36 (KHTML, like Gecko) Chrome/87.0.4280.88 Safari/537.36" etag="m3L7YV9CcqMlq3uAfx0W" version="14.1.8" type="github">
  <diagram id="4NoQpAXfG3ZIOkhWS6N4" name="第 1 页">
    <mxGraphModel dx="782" dy="471" grid="1" gridSize="10" guides="1" tooltips="1" connect="1" arrows="1" fold="1" page="1" pageScale="1" pageWidth="827" pageHeight="1169" math="0" shadow="0">
      <root>
        <mxCell id="0" />
        <mxCell id="1" parent="0" />
        <mxCell id="fkkXkPVEHaHYHS4pf3CL-7" value="" style="group" vertex="1" connectable="0" parent="1">
          <mxGeometry x="70" y="210" width="140" height="480" as="geometry" />
        </mxCell>
        <mxCell id="fkkXkPVEHaHYHS4pf3CL-1" value="注册中心&lt;br&gt;eureka&lt;br&gt;nacos" style="rounded=1;whiteSpace=wrap;html=1;fillColor=#FF9D2E;strokeColor=none;" vertex="1" parent="fkkXkPVEHaHYHS4pf3CL-7">
          <mxGeometry x="10" y="20" width="120" height="60" as="geometry" />
        </mxCell>
        <mxCell id="fkkXkPVEHaHYHS4pf3CL-2" value="熔断保护&lt;br&gt;Hystrix" style="rounded=1;whiteSpace=wrap;html=1;fillColor=#FF9D2E;strokeColor=none;" vertex="1" parent="fkkXkPVEHaHYHS4pf3CL-7">
          <mxGeometry x="10" y="120" width="120" height="60" as="geometry" />
        </mxCell>
        <mxCell id="fkkXkPVEHaHYHS4pf3CL-3" value="zipkin&lt;br&gt;调用链追踪" style="rounded=1;whiteSpace=wrap;html=1;fillColor=#FF9D2E;strokeColor=none;" vertex="1" parent="fkkXkPVEHaHYHS4pf3CL-7">
          <mxGeometry x="10" y="210" width="120" height="60" as="geometry" />
        </mxCell>
        <mxCell id="fkkXkPVEHaHYHS4pf3CL-4" value="日志中心&lt;br&gt;ELK" style="rounded=1;whiteSpace=wrap;html=1;fillColor=#FF9D2E;strokeColor=none;" vertex="1" parent="fkkXkPVEHaHYHS4pf3CL-7">
          <mxGeometry x="10" y="301" width="120" height="60" as="geometry" />
        </mxCell>
        <mxCell id="fkkXkPVEHaHYHS4pf3CL-5" value="安全控制&lt;br&gt;security" style="rounded=1;whiteSpace=wrap;html=1;fillColor=#FF9D2E;strokeColor=none;" vertex="1" parent="fkkXkPVEHaHYHS4pf3CL-7">
          <mxGeometry x="10" y="400" width="120" height="60" as="geometry" />
        </mxCell>
        <mxCell id="fkkXkPVEHaHYHS4pf3CL-6" value="" style="rounded=0;whiteSpace=wrap;html=1;dashed=1;fillColor=none;" vertex="1" parent="fkkXkPVEHaHYHS4pf3CL-7">
          <mxGeometry width="140" height="480" as="geometry" />
        </mxCell>
        <mxCell id="fkkXkPVEHaHYHS4pf3CL-8" value="业务中台" style="rounded=0;whiteSpace=wrap;html=1;dashed=1;fillColor=none;" vertex="1" parent="1">
          <mxGeometry x="230" y="90" width="520" height="70" as="geometry" />
        </mxCell>
        <mxCell id="fkkXkPVEHaHYHS4pf3CL-9" value="网关" style="rounded=0;whiteSpace=wrap;html=1;dashed=1;fillColor=none;" vertex="1" parent="1">
          <mxGeometry x="230" y="200" width="520" height="70" as="geometry" />
        </mxCell>
        <mxCell id="fkkXkPVEHaHYHS4pf3CL-10" value="" style="rounded=0;whiteSpace=wrap;html=1;dashed=1;fillColor=none;strokeColor=#0303FF;" vertex="1" parent="1">
          <mxGeometry x="230" y="300" width="520" height="160" as="geometry" />
        </mxCell>
        <mxCell id="fkkXkPVEHaHYHS4pf3CL-12" value="用户微服务" style="rounded=1;whiteSpace=wrap;html=1;dashed=1;strokeColor=#b85450;fillColor=#f8cecc;" vertex="1" parent="1">
          <mxGeometry x="256" y="310" width="120" height="60" as="geometry" />
        </mxCell>
        <mxCell id="fkkXkPVEHaHYHS4pf3CL-13" value="订单微服务" style="rounded=1;whiteSpace=wrap;html=1;dashed=1;strokeColor=#b85450;fillColor=#f8cecc;" vertex="1" parent="1">
          <mxGeometry x="431" y="310" width="120" height="60" as="geometry" />
        </mxCell>
        <mxCell id="fkkXkPVEHaHYHS4pf3CL-14" value="会员微服务" style="rounded=1;whiteSpace=wrap;html=1;dashed=1;strokeColor=#b85450;fillColor=#f8cecc;" vertex="1" parent="1">
          <mxGeometry x="606" y="310" width="120" height="60" as="geometry" />
        </mxCell>
        <mxCell id="fkkXkPVEHaHYHS4pf3CL-15" value="支付微服务" style="rounded=1;whiteSpace=wrap;html=1;dashed=1;strokeColor=#b85450;fillColor=#f8cecc;" vertex="1" parent="1">
          <mxGeometry x="255" y="390" width="120" height="60" as="geometry" />
        </mxCell>
        <mxCell id="fkkXkPVEHaHYHS4pf3CL-16" value="内容微服务" style="rounded=1;whiteSpace=wrap;html=1;dashed=1;strokeColor=#b85450;fillColor=#f8cecc;" vertex="1" parent="1">
          <mxGeometry x="430" y="390" width="120" height="60" as="geometry" />
        </mxCell>
        <mxCell id="fkkXkPVEHaHYHS4pf3CL-17" value="积分微服务" style="rounded=1;whiteSpace=wrap;html=1;dashed=1;strokeColor=#b85450;fillColor=#f8cecc;" vertex="1" parent="1">
          <mxGeometry x="605" y="390" width="120" height="60" as="geometry" />
        </mxCell>
        <mxCell id="fkkXkPVEHaHYHS4pf3CL-18" value="" style="rounded=0;whiteSpace=wrap;html=1;dashed=1;strokeColor=#0303FF;fillColor=none;" vertex="1" parent="1">
          <mxGeometry x="70" y="710" width="690" height="110" as="geometry" />
        </mxCell>
        <mxCell id="fkkXkPVEHaHYHS4pf3CL-19" value="数据库" style="shape=cylinder3;whiteSpace=wrap;html=1;boundedLbl=1;backgroundOutline=1;size=15;rounded=1;dashed=1;strokeColor=#0303FF;fillColor=none;" vertex="1" parent="1">
          <mxGeometry x="260" y="725" width="60" height="80" as="geometry" />
        </mxCell>
        <mxCell id="fkkXkPVEHaHYHS4pf3CL-20" value="云平台" style="ellipse;shape=cloud;whiteSpace=wrap;html=1;rounded=1;dashed=1;strokeColor=#0303FF;fillColor=none;" vertex="1" parent="1">
          <mxGeometry x="350" y="725" width="120" height="80" as="geometry" />
        </mxCell>
        <mxCell id="fkkXkPVEHaHYHS4pf3CL-21" value="redis 缓存" style="shape=cylinder3;whiteSpace=wrap;html=1;boundedLbl=1;backgroundOutline=1;size=15;rounded=1;dashed=1;strokeColor=#0303FF;fillColor=none;" vertex="1" parent="1">
          <mxGeometry x="510" y="725" width="60" height="80" as="geometry" />
        </mxCell>
        <mxCell id="fkkXkPVEHaHYHS4pf3CL-22" value="基础设施层" style="text;html=1;strokeColor=none;fillColor=none;align=center;verticalAlign=middle;whiteSpace=wrap;rounded=0;dashed=1;" vertex="1" parent="1">
          <mxGeometry x="100" y="750" width="70" height="10" as="geometry" />
        </mxCell>
        <mxCell id="fkkXkPVEHaHYHS4pf3CL-23" value="" style="rounded=0;whiteSpace=wrap;html=1;dashed=1;strokeColor=#0303FF;fillColor=none;" vertex="1" parent="1">
          <mxGeometry x="810" y="200" width="140" height="620" as="geometry" />
        </mxCell>
        <mxCell id="fkkXkPVEHaHYHS4pf3CL-25" value="配置中心&lt;br&gt;nacos" style="rounded=1;whiteSpace=wrap;html=1;dashed=1;strokeColor=none;fillColor=#C3ABD0;" vertex="1" parent="1">
          <mxGeometry x="820" y="230" width="120" height="60" as="geometry" />
        </mxCell>
      </root>
    </mxGraphModel>
  </diagram>
</mxfile>
